<svg width="40" height="40" viewBox="0 0 40 40" fill="none" xmlns="http://www.w3.org/2000/svg">
<g clip-path="url(#clip0_349_23)">
<path d="M20.0456 7.45443C23.1845 7.45443 26.0456 8.12832 28.6289 9.47609C31.2122 10.8239 33.4761 12.8305 35.4206 15.4961L34.0872 16.4961C32.3372 14.0516 30.2889 12.2116 27.9422 10.9761C25.5956 9.74054 22.9633 9.1222 20.0456 9.12109C17.1567 9.12109 14.5456 9.74609 12.2122 10.9961C9.87891 12.2461 7.83724 14.1072 6.08724 16.5794L4.75391 15.6211C6.72613 12.9266 8.99724 10.8922 11.5672 9.51776C14.1372 8.14332 16.9633 7.45554 20.0456 7.45443ZM20.0456 11.3711C23.8511 11.3711 27.0872 12.635 29.7539 15.1628C32.4206 17.6905 33.7539 20.7739 33.7539 24.4128C33.7539 25.7739 33.2606 26.9267 32.2739 27.8711C31.2872 28.8155 30.0861 29.2878 28.6706 29.2878C27.2261 29.2878 26.0039 28.8155 25.0039 27.8711C24.0039 26.9267 23.5039 25.7739 23.5039 24.4128C23.5039 23.5239 23.1706 22.76 22.5039 22.1211C21.8372 21.4822 21.0178 21.1628 20.0456 21.1628C19.0733 21.1628 18.2539 21.4822 17.5872 22.1211C16.9206 22.76 16.5872 23.5239 16.5872 24.4128C16.5872 27.0517 17.3789 29.2805 18.9622 31.0994C20.5456 32.9183 22.8789 34.2867 25.9622 35.2044L25.5456 36.8294C22.1567 35.9683 19.5389 34.4611 17.6922 32.3078C15.8456 30.1544 14.9217 27.5228 14.9206 24.4128C14.9206 23.0517 15.4206 21.8922 16.4206 20.9344C17.4206 19.9767 18.6289 19.4972 20.0456 19.4961C21.4622 19.495 22.6706 19.9744 23.6706 20.9344C24.6706 21.8944 25.1706 23.0539 25.1706 24.4128C25.1706 25.3017 25.5111 26.0655 26.1922 26.7044C26.8734 27.3433 27.6995 27.6628 28.6706 27.6628C29.615 27.6628 30.4206 27.3433 31.0872 26.7044C31.7539 26.0655 32.0872 25.3017 32.0872 24.4128C32.0872 21.2461 30.9206 18.5517 28.5872 16.3294C26.2539 14.1072 23.4206 12.9961 20.0872 12.9961C16.7539 12.9961 13.9206 14.1072 11.5872 16.3294C9.25391 18.5517 8.08724 21.2322 8.08724 24.3711C8.08724 25.3433 8.19168 26.385 8.40057 27.4961C8.60946 28.6072 8.94946 29.8294 9.42057 31.1628L7.92057 31.7461C7.42057 30.4683 7.04557 29.2183 6.79557 27.9961C6.54557 26.7739 6.42057 25.5794 6.42057 24.4128C6.42057 20.7739 7.74002 17.6905 10.3789 15.1628C13.0178 12.635 16.24 11.3711 20.0456 11.3711ZM20.0456 3.37109C21.8511 3.37109 23.615 3.59332 25.3372 4.03776C27.0595 4.4822 28.9067 5.20443 30.8789 6.20443L30.2122 7.74609C28.2956 6.77387 26.5389 6.07943 24.9422 5.66276C23.3456 5.24609 21.7133 5.03776 20.0456 5.03776C18.2122 5.03776 16.5178 5.25998 14.9622 5.70443C13.4067 6.14887 11.7817 6.8572 10.0872 7.82943L9.33724 6.37109C11.1706 5.34332 12.9484 4.58665 14.6706 4.10109C16.3928 3.61554 18.1845 3.3722 20.0456 3.37109ZM20.0456 15.4128C22.8233 15.4128 25.0945 16.3294 26.8589 18.1628C28.6234 19.9961 29.505 22.3572 29.5039 25.2461H27.8372C27.8372 22.8017 27.115 20.8294 25.6706 19.3294C24.2261 17.8294 22.3511 17.0794 20.0456 17.0794C17.9067 17.0794 16.0872 17.795 14.5872 19.2261C13.0872 20.6572 12.3372 22.3861 12.3372 24.4128C12.3372 26.5517 12.7122 28.42 13.4622 30.0178C14.2122 31.6155 15.5595 33.4278 17.5039 35.4544L16.3372 36.6211C14.2539 34.4544 12.7889 32.4611 11.9422 30.6411C11.0956 28.8211 10.6717 26.745 10.6706 24.4128C10.6706 21.9128 11.5806 19.7878 13.4006 18.0378C15.2206 16.2878 17.4356 15.4128 20.0456 15.4128ZM21.9206 30.7044C21.0317 29.8711 20.3511 28.85 19.8789 27.6411C19.4067 26.4322 19.1706 25.0783 19.1706 23.5794H20.8372C20.8372 24.8294 21.0317 25.9683 21.4206 26.9961C21.8095 28.0239 22.365 28.8711 23.0872 29.5378C23.8095 30.1767 24.6222 30.6694 25.5256 31.0161C26.4289 31.3628 27.3661 31.5367 28.3372 31.5378C28.8095 31.5378 29.2678 31.4889 29.7122 31.3911C30.1567 31.2933 30.5872 31.1617 31.0039 30.9961L31.2956 32.6211C30.8233 32.8433 30.3372 32.9961 29.8372 33.0794C29.3372 33.1628 28.8372 33.2044 28.3372 33.2044C27.115 33.2044 25.9556 32.9894 24.8589 32.5594C23.7622 32.1294 22.7828 31.5111 21.9206 30.7044Z" fill="#141414"/>
<rect width="1" height="5" fill="#141414"/>
<rect width="1" height="5" transform="matrix(1 0 0 -1 0 40)" fill="#141414"/>
<rect width="5" height="1" fill="#141414"/>
<path opacity="0.71" d="M0 40H5V39H0V40Z" fill="#141414"/>
<rect width="1" height="5" transform="matrix(-1 0 0 1 40 0)" fill="#141414"/>
<rect x="40" y="40" width="1" height="5" transform="rotate(180 40 40)" fill="#141414"/>
<rect width="5" height="1" transform="matrix(-1 0 0 1 40 0)" fill="#141414"/>
<rect x="40" y="40" width="5" height="1" transform="rotate(180 40 40)" fill="#141414"/>
</g>
<defs>
<clipPath id="clip0_349_23">
<rect width="40" height="40" fill="white"/>
</clipPath>
</defs>
</svg>
