<svg width="151" height="151" viewBox="0 0 151 151" fill="none" xmlns="http://www.w3.org/2000/svg">
<g clip-path="url(#clip0_316_159)">
<path d="M75.6713 28.1411C87.5207 28.1411 98.3213 30.6851 108.073 35.7729C117.826 40.8608 126.372 48.436 133.712 58.4984L128.679 62.2734C122.072 53.0457 114.34 46.0997 105.481 41.4354C96.6226 36.7712 86.686 34.437 75.6713 34.4328C64.7658 34.4328 54.9089 36.7922 46.1005 41.5109C37.2922 46.2297 29.5849 53.2554 22.9786 62.588L17.9453 58.9703C25.3905 48.7988 33.9639 41.1188 43.6656 35.9302C53.3674 30.7417 64.036 28.1453 75.6713 28.1411ZM75.6713 42.9266C90.0373 42.9266 102.254 47.6978 112.32 57.2401C122.387 66.7825 127.42 78.4221 127.42 92.1589C127.42 97.2971 125.558 101.649 121.833 105.214C118.109 108.779 113.574 110.562 108.231 110.562C102.778 110.562 98.1641 108.779 94.3891 105.214C90.6141 101.649 88.7266 97.2971 88.7266 92.1589C88.7266 88.8033 87.4682 85.9196 84.9516 83.5078C82.4349 81.096 79.3415 79.8901 75.6713 79.8901C72.0012 79.8901 68.9078 81.096 66.3911 83.5078C63.8745 85.9196 62.6161 88.8033 62.6161 92.1589C62.6161 102.121 65.6047 110.535 71.5818 117.401C77.5588 124.267 86.3672 129.433 98.0068 132.897L96.4338 139.032C83.6408 135.781 73.7587 130.091 66.7875 121.962C59.8164 113.834 56.3287 103.899 56.3245 92.1589C56.3245 87.0207 58.212 82.6438 61.987 79.0281C65.762 75.4125 70.3234 73.6026 75.6713 73.5984C81.0193 73.5942 85.5807 75.4041 89.3557 79.0281C93.1307 82.6521 95.0182 87.0291 95.0182 92.1589C95.0182 95.5144 96.3038 98.3981 98.875 100.81C101.446 103.222 104.565 104.428 108.231 104.428C111.796 104.428 114.837 103.222 117.354 100.81C119.87 98.3981 121.129 95.5144 121.129 92.1589C121.129 80.2047 116.724 70.0332 107.916 61.6443C99.1078 53.2554 88.412 49.0609 75.8286 49.0609C63.2453 49.0609 52.5495 53.2554 43.7411 61.6443C34.9328 70.0332 30.5286 80.1523 30.5286 92.0016C30.5286 95.6717 30.9229 99.604 31.7115 103.798C32.5 107.993 33.7835 112.607 35.562 117.64L29.8995 119.842C28.012 115.019 26.5964 110.3 25.6526 105.686C24.7089 101.072 24.237 96.563 24.237 92.1589C24.237 78.4221 29.2179 66.7825 39.1797 57.2401C49.1415 47.6978 61.3054 42.9266 75.6713 42.9266ZM75.6713 12.7266C82.4873 12.7266 89.146 13.5655 95.6474 15.2432C102.149 16.921 109.122 19.6474 116.567 23.4224L114.051 29.2422C106.815 25.572 100.184 22.9505 94.1563 21.3776C88.1289 19.8047 81.9672 19.0182 75.6713 19.0182C68.7505 19.0182 62.354 19.8571 56.4818 21.5349C50.6096 23.2127 44.4752 25.8866 38.0786 29.5568L35.2474 24.0516C42.1682 20.1717 48.8793 17.3153 55.3807 15.4823C61.8821 13.6493 68.6457 12.7308 75.6713 12.7266ZM75.6713 58.1839C86.1575 58.1839 94.7309 61.6443 101.392 68.5651C108.052 75.4859 111.381 84.3991 111.377 95.3047H105.085C105.085 86.0769 102.358 78.6318 96.9057 72.9693C91.4529 67.3068 84.3748 64.4755 75.6713 64.4755C67.597 64.4755 60.7286 67.1768 55.0661 72.5792C49.4036 77.9816 46.5724 84.5082 46.5724 92.1589C46.5724 100.233 47.988 107.286 50.8193 113.318C53.6505 119.349 58.7363 126.19 66.0766 133.841L61.6724 138.245C53.8078 130.066 48.2774 122.541 45.0813 115.671C41.8851 108.8 40.2849 100.963 40.2807 92.1589C40.2807 82.7214 43.716 74.6995 50.5865 68.0932C57.457 61.487 65.8186 58.1839 75.6713 58.1839ZM82.7495 115.91C79.3939 112.764 76.8248 108.909 75.0422 104.346C73.2596 99.7823 72.3682 94.6713 72.3682 89.013H78.6599C78.6599 93.7318 79.3939 98.0311 80.862 101.911C82.33 105.791 84.4272 108.989 87.1536 111.506C89.88 113.918 92.9483 115.778 96.3583 117.086C99.7684 118.395 103.306 119.052 106.972 119.056C108.755 119.056 110.485 118.871 112.163 118.502C113.841 118.133 115.466 117.636 117.039 117.011L118.14 123.145C116.357 123.984 114.522 124.561 112.635 124.876C110.747 125.19 108.86 125.347 106.972 125.347C102.358 125.347 97.9816 124.536 93.8417 122.913C89.7018 121.289 86.0044 118.955 82.7495 115.91Z" fill="#0EFEF2"/>
<path d="M0 0H3.775V18.875H0V0Z" fill="#0EFEF2"/>
<path d="M0 0H18.875V3.775H0V0Z" fill="#0EFEF2"/>
<path d="M0 151H3.775V132.125H0V151Z" fill="#0EFEF2"/>
<path d="M0 151H18.875V147.225H0V151Z" fill="#0EFEF2"/>
<path d="M151 0H147.225V18.875H151V0Z" fill="#0EFEF2"/>
<path d="M151 0H132.125V3.775H151V0Z" fill="#0EFEF2"/>
<path d="M151 151H147.225V132.125H151V151Z" fill="#0EFEF2"/>
<path d="M151 151H132.125V147.225H151V151Z" fill="#0EFEF2"/>
</g>
<defs>
<clipPath id="clip0_316_159">
<rect width="151" height="151" fill="white"/>
</clipPath>
</defs>
</svg>
